<svg width="22" height="22" viewBox="0 0 22 22" fill="none" xmlns="http://www.w3.org/2000/svg">
<g clip-path="url(#clip0_10156_1281)">
<path d="M1.07393 21.9998C0.861442 21.9998 0.653714 21.9368 0.477022 21.8188C0.300331 21.7008 0.162615 21.533 0.0812934 21.3367C-2.81218e-05 21.1404 -0.0213016 20.9243 0.020164 20.7159C0.0616295 20.5075 0.163971 20.3161 0.314244 20.1659L20.1658 0.314307C20.3673 0.112825 20.6406 -0.000366211 20.9255 -0.000366211C21.2104 -0.000366211 21.4837 0.112825 21.6852 0.314307C21.8867 0.515788 21.9999 0.789056 21.9999 1.07399C21.9999 1.35893 21.8867 1.6322 21.6852 1.83368L1.83362 21.6852C1.73395 21.7851 1.61552 21.8643 1.48515 21.9183C1.35478 21.9723 1.21503 22 1.07393 21.9998Z" fill="#FBB731"/>
<path d="M20.9259 21.9998C20.7848 22 20.6451 21.9723 20.5147 21.9183C20.3843 21.8643 20.2659 21.7851 20.1662 21.6852L0.314673 1.83368C0.113191 1.6322 0 1.35893 0 1.07399C0 0.789056 0.113191 0.515788 0.314673 0.314307C0.516155 0.112825 0.789422 -0.000366211 1.07436 -0.000366211C1.3593 -0.000366211 1.63257 0.112825 1.83405 0.314307L21.6856 20.1659C21.8359 20.3161 21.9382 20.5075 21.9797 20.7159C22.0212 20.9243 21.9999 21.1404 21.9186 21.3367C21.8372 21.533 21.6995 21.7008 21.5228 21.8188C21.3461 21.9368 21.1384 21.9998 20.9259 21.9998V21.9998Z" fill="#FBB731"/>
</g>
<defs>
<clipPath id="clip0_10156_1281">
<rect width="22" height="22" fill="white"/>
</clipPath>
</defs>
</svg>
